<svg xmlns="http://www.w3.org/2000/svg" width="640" height="480">
<style>text{font-family:sans-serif;font-size:11px}</style>
<text x="10" y="20" font-weight="bold">Threat coverage matrix (node counts)</text>
<text x="5" y="160.0">privilege_es</text>
<text x="120" y="110">cap_table</text>
<rect x="120" y="120" width="76" height="76" fill="#e8eef8" stroke="#333"/><text x="148" y="165">6</text>
<text x="200" y="110">audit</text>
<rect x="200" y="120" width="76" height="76" fill="#e8eef8" stroke="#333"/><text x="228" y="165">0</text>
<text x="280" y="110">ipc</text>
<rect x="280" y="120" width="76" height="76" fill="#e8eef8" stroke="#333"/><text x="308" y="165">1</text>
<text x="360" y="110">compat_shim</text>
<rect x="360" y="120" width="76" height="76" fill="#e8eef8" stroke="#333"/><text x="388" y="165">1</text>
<text x="440" y="110">build_pipeline</text>
<rect x="440" y="120" width="76" height="76" fill="#e8eef8" stroke="#333"/><text x="468" y="165">0</text>
<text x="520" y="110">kernel_heap</text>
<rect x="520" y="120" width="76" height="76" fill="#e8eef8" stroke="#333"/><text x="548" y="165">0</text>
<text x="5" y="240.0">information_</text>
<rect x="120" y="200" width="76" height="76" fill="#e8eef8" stroke="#333"/><text x="148" y="245">0</text>
<rect x="200" y="200" width="76" height="76" fill="#e8eef8" stroke="#333"/><text x="228" y="245">2</text>
<rect x="280" y="200" width="76" height="76" fill="#e8eef8" stroke="#333"/><text x="308" y="245">0</text>
<rect x="360" y="200" width="76" height="76" fill="#e8eef8" stroke="#333"/><text x="388" y="245">0</text>
<rect x="440" y="200" width="76" height="76" fill="#e8eef8" stroke="#333"/><text x="468" y="245">0</text>
<rect x="520" y="200" width="76" height="76" fill="#e8eef8" stroke="#333"/><text x="548" y="245">0</text>
<text x="5" y="320.0">denial_of_se</text>
<rect x="120" y="280" width="76" height="76" fill="#e8eef8" stroke="#333"/><text x="148" y="325">1</text>
<rect x="200" y="280" width="76" height="76" fill="#e8eef8" stroke="#333"/><text x="228" y="325">0</text>
<rect x="280" y="280" width="76" height="76" fill="#e8eef8" stroke="#333"/><text x="308" y="325">1</text>
<rect x="360" y="280" width="76" height="76" fill="#e8eef8" stroke="#333"/><text x="388" y="325">0</text>
<rect x="440" y="280" width="76" height="76" fill="#e8eef8" stroke="#333"/><text x="468" y="325">0</text>
<rect x="520" y="280" width="76" height="76" fill="#e8eef8" stroke="#333"/><text x="548" y="325">1</text>
<text x="5" y="400.0">integrity_vi</text>
<rect x="120" y="360" width="76" height="76" fill="#e8eef8" stroke="#333"/><text x="148" y="405">3</text>
<rect x="200" y="360" width="76" height="76" fill="#e8eef8" stroke="#333"/><text x="228" y="405">1</text>
<rect x="280" y="360" width="76" height="76" fill="#e8eef8" stroke="#333"/><text x="308" y="405">1</text>
<rect x="360" y="360" width="76" height="76" fill="#e8eef8" stroke="#333"/><text x="388" y="405">1</text>
<rect x="440" y="360" width="76" height="76" fill="#e8eef8" stroke="#333"/><text x="468" y="405">2</text>
<rect x="520" y="360" width="76" height="76" fill="#e8eef8" stroke="#333"/><text x="548" y="405">1</text>
</svg>